PathFileType	4	(X/Y/Z)	C:\Users\Basilio\Documents\Thesis Gigler\squatting_fais\c3dfiles\054\SJ_pre5\markers_experimental.trc
DataRate	CameraRate	NumFrames	NumMarkers	Units	OrigDataRate	OrigDataStartFrame	OrigNumFrames
200.000000	200.000000	4	61	mm	200.000000	1201	1602
Frame#	Time	FHD			LBHD			RBHD			C7			T10			CLAV			LSHO			LUUPA			LMUPA			LDUPA			LLEP			LMEP			LRAD			LUL			LRFIN			RSHO			RUPA1			RMUPA			RDUPA			RLEP			RMEP			RRAD			RUL			RUFIN			LASI			RASI			USACR			LSACR			RSACR			LTHI1			LTHI2			LTHI3			LTHI4			LLFC			LMFC			LTIB1			LTIB2			LTIB3			LTIB4			LLMAL			LMMAL			LHEE			LMT1			LMT2			LMT5			RTHI			RTHI2			RTHI3			RTHI4			RLFC			RMFC			RTIB1			RTIB2			RTIB3			RTIB4			RLMAL			RMMAL			RHEE			RMT1			RMT2			RMT5			
		X1	Y1	Z1	X2	Y2	Z2	X3	Y3	Z3	X4	Y4	Z4	X5	Y5	Z5	X6	Y6	Z6	X7	Y7	Z7	X8	Y8	Z8	X9	Y9	Z9	X10	Y10	Z10	X11	Y11	Z11	X12	Y12	Z12	X13	Y13	Z13	X14	Y14	Z14	X15	Y15	Z15	X16	Y16	Z16	X17	Y17	Z17	X18	Y18	Z18	X19	Y19	Z19	X20	Y20	Z20	X21	Y21	Z21	X22	Y22	Z22	X23	Y23	Z23	X24	Y24	Z24	X25	Y25	Z25	X26	Y26	Z26	X27	Y27	Z27	X28	Y28	Z28	X29	Y29	Z29	X30	Y30	Z30	X31	Y31	Z31	X32	Y32	Z32	X33	Y33	Z33	X34	Y34	Z34	X35	Y35	Z35	X36	Y36	Z36	X37	Y37	Z37	X38	Y38	Z38	X39	Y39	Z39	X40	Y40	Z40	X41	Y41	Z41	X42	Y42	Z42	X43	Y43	Z43	X44	Y44	Z44	X45	Y45	Z45	X46	Y46	Z46	X47	Y47	Z47	X48	Y48	Z48	X49	Y49	Z49	X50	Y50	Z50	X51	Y51	Z51	X52	Y52	Z52	X53	Y53	Z53	X54	Y54	Z54	X55	Y55	Z55	X56	Y56	Z56	X57	Y57	Z57	X58	Y58	Z58	X59	Y59	Z59	X60	Y60	Z60	X61	Y61	Z61	

1202	6.005	130.8143005371094	1230.023559570313	-892.2567138671877	-37.99320983886719	1189.675659179688	-961.0986328125002	-51.41034317016603	1188.951049804688	-821.812683105469	-108.7746658325196	1102.973022460938	-881.9311523437502	-374.3912048339844	899.0040283203127	-905.1281738281252	-42.83757019042969	957.2608642578127	-891.0678710937502	-35.25103759765626	1041.871459960938	-1041.958618164063	-167.7816925048828	1041.572998046875	-1223.613403320313	-169.3704223632813	992.6712036132815	-1238.66796875	-209.3536376953126	1017.234436035156	-1276.140747070313	-252.0127716064454	972.5306396484377	-1306.727416992188	-321.4523620605469	1009.989013671875	-1261.306762695313	-368.4942016601563	802.804870605469	-1139.197143554688	-355.3538818359376	744.3822631835939	-1186.928588867188	-324.2975158691407	779.4529418945315	-1096.045654296875	-32.56108093261719	1020.313842773438	-729.2030639648439	-189.1957702636719	1009.298583984375	-557.5051269531251	-201.7232818603516	962.9895019531252	-547.2110595703126	-244.7534332275391	992.6316528320315	-516.9770507812501	-289.1061401367188	966.9194946289065	-499.0157165527345	-340.7817993164063	1013.540649414063	-553.3149414062501	-426.0439758300782	812.5916748046877	-686.3718872070314	-415.1441650390626	757.1817016601564	-631.6486816406251	-368.9703063964844	787.2211914062502	-714.7232666015626	-341.7281494140626	669.1154174804689	-1027.901733398438	-347.9294433593751	689.5652465820314	-764.2841796875001	-451.2021789550782	837.7383422851565	-906.036804199219	-475.7247314453126	817.4046630859377	-934.4163208007815	-478.1041564941407	817.6589355468752	-876.8288574218752	-401.414031982422	603.0064697265626	-1173.66748046875	-322.2799987792969	592.2192382812501	-1204.265991210938	-296.5072021484376	629.7592163085939	-1193.194702148438	-293.7164916992188	540.7767944335939	-1217.800415039063	-177.106918334961	470.0230102539064	-1248.347534179688	-109.7814559936524	456.8304138183595	-1132.114624023438	-158.7261505126953	308.0627441406251	-1223.751831054688	-236.4490051269532	285.2035827636719	-1262.84814453125	-197.6871643066407	269.2598876953126	-1249.5078125	-218.1619415283204	195.7676391601563	-1213.4404296875	-329.7507934570313	88.39460754394533	-1237.22998046875	-270.4609985351563	96.89520263671878	-1158.207397460938	-382.2137756347657	51.07330322265626	-1161.400024414063	-168.2605438232422	54.66433334350587	-1222.571044921875	-179.1031646728516	60.78082656860353	-1270.724365234375	-244.5844726562501	39.6303825378418	-1303.132202148438	-350.5995788574219	568.6776123046876	-614.8240356445314	-286.2955017089844	574.4732666015626	-595.0968017578126	-266.2366027832032	600.5892944335939	-599.8096313476564	-235.3157501220704	508.4429321289064	-579.8826904296876	-188.0631866455078	463.3244628906251	-562.7868652343751	-112.1299133300782	466.1607360839845	-676.5684814453126	-156.6744079589844	358.2503051757813	-550.6429443359376	-256.7171020507813	313.7437438964844	-547.4045410156251	-214.8518066406251	292.6570434570313	-545.8099975585939	-212.4087982177735	240.987533569336	-568.5270996093751	-326.3386230468751	89.28672027587892	-573.3477172851564	-266.1042785644532	98.64981842041018	-646.4816894531251	-377.9035034179688	48.37300491333009	-648.1312255859376	-159.378158569336	53.70949172973634	-587.0830078125001	-173.1797790527344	58.25295257568361	-541.0238037109376	-233.9501190185547	35.84849548339844	-509.7812805175782	
1203	6.01	130.4588317871094	1230.05908203125	-892.2723388671877	-38.50437545776368	1189.635498046875	-961.1658325195315	-51.82397460937501	1188.90576171875	-821.8527832031252	-109.1217575073242	1103.084716796875	-882.027526855469	-374.7109985351563	898.8855590820315	-905.1516723632815	-43.09618759155274	957.3713989257815	-891.0728759765627	-35.55706787109376	1041.814575195313	-1041.944458007813	-168.3033905029297	1041.275024414063	-1223.44921875	-169.0575714111328	992.824645996094	-1238.960571289063	-210.0636749267579	1017.048400878906	-1275.933959960938	-252.4671630859376	972.2563476562502	-1306.01123046875	-321.6665649414063	1009.755432128906	-1261.431884765625	-368.8816833496094	802.5076293945315	-1139.345336914063	-355.6398925781251	744.1157226562501	-1186.977294921875	-324.5122070312501	779.2437133789065	-1096.023193359375	-33.00744628906251	1020.338562011719	-729.1225585937501	-189.5664825439453	1009.100524902344	-557.5344238281251	-202.1371154785157	963.0031738281252	-547.1687622070314	-245.2628326416016	992.5866699218752	-516.8750610351564	-289.4014892578126	966.7945556640627	-499.0924682617189	-341.1244506835938	1013.382690429688	-553.3594970703126	-426.2716064453126	812.395690917969	-686.3711547851564	-415.4627990722657	756.9100952148439	-631.6513671875001	-369.4932250976563	786.9271240234377	-714.7457275390626	-343.6290588378907	668.9025878906251	-1029.194580078125	-348.4783325195313	689.5588989257814	-764.3687133789064	-451.5628051757814	837.5894165039065	-906.0235595703127	-476.4021911621095	817.462341308594	-934.316589355469	-478.4969177246095	817.4622802734377	-876.8673095703127	-401.5797424316407	602.8066406250001	-1173.68212890625	-322.4770507812501	592.1724853515626	-1204.191772460938	-296.7388610839844	629.6697998046876	-1193.172485351563	-293.1234741210938	540.6393432617189	-1218.038452148438	-177.2640533447266	470.2227172851564	-1248.270141601563	-109.8577880859375	456.8739013671876	-1132.09130859375	-158.7593994140625	308.0819396972657	-1223.7138671875	-236.4831085205079	285.2120666503907	-1262.876953125	-197.8026580810547	269.2645874023438	-1249.492553710938	-218.2232360839844	195.7538452148438	-1213.44384765625	-329.7568359375001	88.36569976806642	-1237.26220703125	-270.4794921875001	96.90200805664065	-1158.183349609375	-382.2195129394532	51.0925636291504	-1161.3916015625	-168.2171478271485	54.65952682495119	-1222.559326171875	-179.0551300048828	60.78993606567384	-1270.745361328125	-244.5161895751954	39.59803009033204	-1303.1640625	-350.7480773925782	568.4951782226564	-614.8275756835939	-286.5090026855469	574.3927001953126	-595.1035766601564	-266.4243774414063	600.4651489257814	-599.7573242187501	-235.4310302734376	508.3773193359376	-579.9391479492189	-188.1614837646485	463.3697204589845	-562.8049926757814	-112.0208587646485	466.2394409179689	-676.5241088867189	-156.7457122802735	358.2626342773438	-550.6325683593751	-256.7857666015626	313.7798461914063	-547.3826904296876	-214.9129486083985	292.6528015136719	-545.7640991210939	-212.5739898681641	241.030746459961	-568.4558715820314	-326.3473205566407	89.24600982666017	-573.3251953125001	-266.0969238281251	98.65916442871097	-646.4807128906251	-377.9033508300782	48.35235595703126	-648.1610717773439	-159.2908020019532	53.70387649536134	-587.0996704101564	-173.1827850341797	58.25681686401369	-541.0153808593751	-233.9403991699219	35.83797073364259	-509.815155029297	
1204	6.015000000000001	129.7139587402344	1230.0576171875	-892.1243896484377	-38.81920242309571	1189.641723632813	-961.2053222656252	-52.18927383422853	1188.91357421875	-821.8775634765627	-109.686393737793	1103.001342773438	-881.9431152343752	-375.0690612792969	898.7507934570315	-905.113708496094	-43.46998596191407	957.383239746094	-891.1041259765627	-35.90015029907227	1041.7998046875	-1041.972778320313	-168.6538391113282	1041.099609375	-1223.4765625	-169.2606048583985	992.746765136719	-1238.94970703125	-210.4293060302735	1016.849914550781	-1275.943481445313	-252.8353729248047	972.0382080078127	-1305.987670898438	-321.9691162109376	1009.527648925781	-1261.479125976563	-369.0991821289063	802.2614746093752	-1139.438598632813	-355.8603515625001	743.8143310546876	-1186.9775390625	-324.5635986328126	778.9011230468752	-1096.094482421875	-33.6286849975586	1020.351440429688	-729.0191650390626	-189.879135131836	1009.072387695313	-557.6541748046876	-202.3972625732422	962.9547119140627	-547.2576904296876	-245.6006469726563	992.6019287109377	-516.9580688476564	-289.8893432617188	966.6421508789065	-499.0997924804689	-341.5068969726563	1013.173706054688	-553.4301757812501	-426.6473388671876	812.2647705078127	-686.3223266601564	-415.7888793945314	756.6531372070314	-631.6812133789064	-369.6092834472657	786.7801513671877	-714.8226318359376	-344.5878295898438	668.3124389648439	-1029.430786132813	-348.8702392578126	689.5839843750001	-764.3607788085939	-451.6519470214845	837.4106445312502	-906.0513305664065	-476.6907653808595	817.336608886719	-934.3128662109377	-478.7523803710939	817.287048339844	-876.894226074219	-401.6928710937501	602.7180175781251	-1173.708251953125	-322.6509399414063	592.1033935546876	-1204.2587890625	-296.8766174316407	629.5939941406251	-1193.204711914063	-293.2493896484376	540.5999145507814	-1218.036376953125	-177.4095306396485	470.2160949707032	-1248.276123046875	-109.8739013671875	456.9102783203126	-1132.100463867188	-158.837875366211	308.0306701660157	-1223.729614257813	-236.5806427001954	285.2007446289063	-1262.855834960938	-197.7888641357422	269.2814941406251	-1249.469360351563	-218.2236785888672	195.7509765625001	-1213.446899414063	-329.7599792480469	88.36734771728517	-1237.22900390625	-270.4764099121094	96.92099761962893	-1158.181396484375	-382.2429199218751	51.1222267150879	-1161.367065429688	-168.1868743896485	54.69762420654298	-1222.541748046875	-179.1546173095703	60.76628494262697	-1270.730102539063	-244.5627746582032	39.57769012451173	-1303.1279296875	-350.8814697265626	568.3765869140626	-614.8518066406251	-286.6813049316407	574.2947387695314	-595.0709838867189	-266.6196289062501	600.3867187500001	-599.7590332031251	-235.5471496582032	508.3009033203126	-579.8970336914064	-188.2608795166016	463.3334960937501	-562.7825317382814	-112.1356658935547	466.2744140625001	-676.4934692382814	-156.8616333007813	358.3224182128907	-550.5704345703126	-256.8616027832032	313.7839050292969	-547.3664550781251	-214.9431762695313	292.7136840820313	-545.7452392578126	-212.6715698242188	241.0475311279297	-568.4155883789064	-326.3205871582032	89.2369842529297	-573.3041381835939	-266.1267395019532	98.63179016113284	-646.4765625000001	-377.8983764648438	48.39258193969728	-648.1633300781251	-159.3746795654297	53.70061492919923	-587.0568847656251	-173.1858825683594	58.27635574340822	-540.9945068359376	-233.9538269042969	35.84049987792969	-509.7918395996095	
1205	6.02	129.2108459472657	1230.146118164063	-892.099060058594	-39.13413238525391	1189.679565429688	-961.2124633789065	-52.7878875732422	1188.864013671875	-821.9007568359377	-110.0496978759766	1102.983032226563	-881.9427490234377	-375.4574890136719	898.6147460937502	-905.1395263671877	-43.58870697021485	957.3260498046877	-891.1008911132815	-36.3263168334961	1041.788208007813	-1041.991821289063	-169.007308959961	1040.937744140625	-1223.531494140625	-169.6713104248047	992.632751464844	-1238.984497070313	-210.7315521240235	1016.645751953125	-1276.003051757813	-253.1752319335938	971.8315429687502	-1305.9814453125	-322.2172546386719	1009.289611816406	-1261.449951171875	-369.2247314453126	802.045349121094	-1139.330688476563	-356.0547485351563	743.6289672851564	-1187.067749023438	-324.8909912109376	778.7349853515627	-1096.108154296875	-33.8927116394043	1020.374267578125	-729.1392211914064	-190.1542663574219	1009.076904296875	-557.6449584960939	-202.8643035888672	962.8741455078127	-547.2122192382814	-245.8518371582032	992.5644531250002	-517.0116577148439	-290.1101989746094	966.5537719726565	-499.0805969238282	-341.7348632812501	1013.0087890625	-553.5196533203126	-426.9538879394532	812.0730590820315	-686.3530273437501	-415.9045715332032	756.5283813476564	-631.7164916992189	-369.9581298828126	786.549743652344	-714.9177856445314	-344.3171691894532	667.7680053710939	-1028.136108398438	-348.8697814941407	689.5736694335939	-764.2578125000001	-452.0450134277345	837.3479614257815	-906.0521240234377	-476.951873779297	817.1734619140627	-934.3482055664065	-479.4767150878907	817.236999511719	-876.9000244140627	-401.9534301757814	602.5984497070314	-1173.68212890625	-322.7618408203126	591.9851684570314	-1204.22314453125	-297.0171508789063	629.5506591796876	-1193.185791015625	-293.2692871093751	540.5230712890626	-1218.058959960938	-177.4619140625	470.2377014160157	-1248.327514648438	-109.9588012695313	456.8912658691407	-1132.10986328125	-158.8157043457032	308.0605468750001	-1223.775756835938	-236.5332336425782	285.1977844238282	-1262.864990234375	-197.8917694091797	269.2177734375001	-1249.476806640625	-218.2692413330079	195.772689819336	-1213.478515625	-329.7587585449219	88.35535430908205	-1237.267822265625	-270.4737548828126	96.90631103515628	-1158.16845703125	-382.2545776367188	51.0795364379883	-1161.386352539063	-168.2153778076172	54.67667770385744	-1222.538208007813	-179.0784912109375	60.7733726501465	-1270.735229492188	-244.5297241210938	39.56878280639649	-1303.153442382813	-351.0863342285157	568.2227783203126	-614.9293823242189	-286.9980468750001	574.2593994140626	-595.0581665039064	-266.9329528808594	600.3016357421876	-599.6937255859376	-235.6790313720704	508.2282104492189	-579.8774414062501	-188.407211303711	463.3794250488282	-562.8187255859376	-112.2031555175782	466.3850708007814	-676.4902954101564	-156.9371337890625	358.3890075683594	-550.5590209960939	-256.9245300292969	313.8032836914063	-547.3333740234376	-214.9764862060547	292.7329711914063	-545.7622680664064	-212.7560729980469	241.0765533447266	-568.3872680664064	-326.3312072753907	89.22966766357423	-573.2759399414064	-266.1531982421876	98.68589782714847	-646.4420776367189	-377.8923645019532	48.37178802490236	-648.1571655273439	-159.3872375488282	53.67626953125001	-587.0657958984376	-173.2106018066407	58.28547668457033	-540.9734497070314	-233.9492340087891	35.82054519653321	-509.8056640625001	
